<mxfile host="app.diagrams.net" agent="Mozilla/5.0 (Macintosh; Intel Mac OS X 10_15_7) AppleWebKit/537.36 (KHTML, like Gecko) Chrome/141.0.0.0 Safari/537.36" version="24.8.9">
  <diagram name="Page-1" id="mppQArdNplE76qf9o16w">
    <mxGraphModel>
      <root>
        <mxCell id="0" />
        <mxCell id="1" parent="0" />
        <mxCell id="2" value="Data_Transmission" style="whiteSpace=wrap;strokeWidth=2;" vertex="1" parent="1">
          <mxGeometry x="1109" y="713" width="547" height="439" as="geometry" />
        </mxCell>
        <mxCell id="3" value="Application_Clients" style="whiteSpace=wrap;strokeWidth=2;" vertex="1" parent="1">
          <mxGeometry x="8" y="154" width="617" height="99" as="geometry" />
        </mxCell>
        <mxCell id="4" value="Netflix_Example" style="whiteSpace=wrap;strokeWidth=2;" vertex="1" parent="1">
          <mxGeometry x="645" y="8" width="781" height="512" as="geometry" />
        </mxCell>
        <mxCell id="5" value="Application Layer" style="whiteSpace=wrap;strokeWidth=2;" vertex="1" parent="1">
          <mxGeometry x="832" y="179" width="185" height="49" as="geometry" />
        </mxCell>
        <mxCell id="6" value="Presentation Layer" style="whiteSpace=wrap;strokeWidth=2;" vertex="1" parent="1">
          <mxGeometry x="843" y="325" width="194" height="49" as="geometry" />
        </mxCell>
        <mxCell id="7" value="HTTP Header Encryption" style="whiteSpace=wrap;strokeWidth=2;" vertex="1" parent="1">
          <mxGeometry x="1152" y="325" width="235" height="49" as="geometry" />
        </mxCell>
        <mxCell id="8" value="Session Layer" style="whiteSpace=wrap;strokeWidth=2;" vertex="1" parent="1">
          <mxGeometry x="1461" y="446" width="155" height="49" as="geometry" />
        </mxCell>
        <mxCell id="9" value="Transport Layer" style="whiteSpace=wrap;strokeWidth=2;" vertex="1" parent="1">
          <mxGeometry x="1453" y="592" width="172" height="49" as="geometry" />
        </mxCell>
        <mxCell id="10" value="Network Layer" style="whiteSpace=wrap;strokeWidth=2;" vertex="1" parent="1">
          <mxGeometry x="1457" y="738" width="164" height="49" as="geometry" />
        </mxCell>
        <mxCell id="11" value="Data Link Layer" style="whiteSpace=wrap;strokeWidth=2;" vertex="1" parent="1">
          <mxGeometry x="1278" y="859" width="171" height="49" as="geometry" />
        </mxCell>
        <mxCell id="12" value="Physical Layer" style="whiteSpace=wrap;strokeWidth=2;" vertex="1" parent="1">
          <mxGeometry x="1165" y="980" width="161" height="49" as="geometry" />
        </mxCell>
        <mxCell id="13" value="Netflix Application" style="whiteSpace=wrap;strokeWidth=2;" vertex="1" parent="1">
          <mxGeometry x="771" y="33" width="194" height="49" as="geometry" />
        </mxCell>
        <mxCell id="14" value="Media Player" style="whiteSpace=wrap;strokeWidth=2;" vertex="1" parent="1">
          <mxGeometry x="848" y="446" width="152" height="49" as="geometry" />
        </mxCell>
        <mxCell id="15" value="Web Browser" style="whiteSpace=wrap;strokeWidth=2;" vertex="1" parent="1">
          <mxGeometry x="43" y="179" width="153" height="49" as="geometry" />
        </mxCell>
        <mxCell id="16" value="Mobile App" style="whiteSpace=wrap;strokeWidth=2;" vertex="1" parent="1">
          <mxGeometry x="246" y="179" width="138" height="49" as="geometry" />
        </mxCell>
        <mxCell id="17" value="Smart TV App" style="whiteSpace=wrap;strokeWidth=2;" vertex="1" parent="1">
          <mxGeometry x="434" y="179" width="156" height="49" as="geometry" />
        </mxCell>
        <mxCell id="18" value="Router" style="whiteSpace=wrap;strokeWidth=2;" vertex="1" parent="1">
          <mxGeometry x="1500" y="859" width="107" height="49" as="geometry" />
        </mxCell>
        <mxCell id="19" value="Switch" style="whiteSpace=wrap;strokeWidth=2;" vertex="1" parent="1">
          <mxGeometry x="1376" y="980" width="107" height="49" as="geometry" />
        </mxCell>
        <mxCell id="20" value="Cable/Optical Fiber" style="whiteSpace=wrap;strokeWidth=2;" vertex="1" parent="1">
          <mxGeometry x="1144" y="1079" width="202" height="49" as="geometry" />
        </mxCell>
        <mxCell id="21" value="" style="whiteSpace=wrap;strokeWidth=2;" vertex="1" parent="1">
          <mxGeometry x="1085" y="203" as="geometry" />
        </mxCell>
        <mxCell id="22" value="" style="whiteSpace=wrap;strokeWidth=2;" vertex="1" parent="1">
          <mxGeometry x="1102" y="349" as="geometry" />
        </mxCell>
        <mxCell id="23" value="HTTP" style="curved=1;startArrow=none;endArrow=block;exitX=0.54;exitY=0.99;entryX=0.5;entryY=0;" edge="1" parent="1" source="5" target="6">
          <mxGeometry relative="1" as="geometry">
            <Array as="points">
              <mxPoint x="940" y="253" />
            </Array>
          </mxGeometry>
        </mxCell>
        <mxCell id="24" value="HTTPS" style="curved=1;startArrow=none;endArrow=block;exitX=1;exitY=0.76;entryX=0.5;entryY=0;" edge="1" parent="1" source="5" target="7">
          <mxGeometry relative="1" as="geometry">
            <Array as="points">
              <mxPoint x="1270" y="253" />
            </Array>
          </mxGeometry>
        </mxCell>
        <mxCell id="25" value="Data Encoding" style="curved=1;startArrow=none;endArrow=block;exitX=1;exitY=0.78;entryX=0.02;entryY=0;" edge="1" parent="1" source="6" target="8">
          <mxGeometry relative="1" as="geometry">
            <Array as="points">
              <mxPoint x="1353" y="410" />
            </Array>
          </mxGeometry>
        </mxCell>
        <mxCell id="26" value="TCP" style="curved=1;startArrow=none;endArrow=block;exitX=0.5;exitY=0.99;entryX=0.5;entryY=0;" edge="1" parent="1" source="8" target="9">
          <mxGeometry relative="1" as="geometry">
            <Array as="points" />
          </mxGeometry>
        </mxCell>
        <mxCell id="27" value="Segmenting Data" style="curved=1;startArrow=none;endArrow=block;exitX=0.5;exitY=0.99;entryX=0.5;entryY=0;" edge="1" parent="1" source="9" target="10">
          <mxGeometry relative="1" as="geometry">
            <Array as="points" />
          </mxGeometry>
        </mxCell>
        <mxCell id="28" value="IP Addressing" style="curved=1;startArrow=none;endArrow=block;exitX=0.07;exitY=0.99;entryX=0.5;entryY=0;" edge="1" parent="1" source="10" target="11">
          <mxGeometry relative="1" as="geometry">
            <Array as="points">
              <mxPoint x="1364" y="823" />
            </Array>
          </mxGeometry>
        </mxCell>
        <mxCell id="29" value="Ethernet" style="curved=1;startArrow=none;endArrow=block;exitX=0.22;exitY=0.99;entryX=0.5;entryY=0;" edge="1" parent="1" source="11" target="12">
          <mxGeometry relative="1" as="geometry">
            <Array as="points">
              <mxPoint x="1245" y="944" />
            </Array>
          </mxGeometry>
        </mxCell>
        <mxCell id="30" value="User Interaction" style="curved=1;startArrow=none;endArrow=block;exitX=0.44;exitY=0.99;entryX=0.28;entryY=0;" edge="1" parent="1" source="13" target="5">
          <mxGeometry relative="1" as="geometry">
            <Array as="points">
              <mxPoint x="841" y="118" />
              <mxPoint x="841" y="154" />
            </Array>
          </mxGeometry>
        </mxCell>
        <mxCell id="31" value="Content Delivery" style="curved=1;startArrow=none;endArrow=block;exitX=0.01;exitY=0.99;entryX=0.02;entryY=0;" edge="1" parent="1" source="5" target="14">
          <mxGeometry relative="1" as="geometry">
            <Array as="points">
              <mxPoint x="741" y="253" />
              <mxPoint x="741" y="410" />
            </Array>
          </mxGeometry>
        </mxCell>
        <mxCell id="32" value="Login" style="curved=1;startArrow=none;endArrow=block;exitX=0.76;exitY=0.99;entryX=0.68;entryY=0;" edge="1" parent="1" source="13" target="5">
          <mxGeometry relative="1" as="geometry">
            <Array as="points">
              <mxPoint x="993" y="118" />
              <mxPoint x="993" y="154" />
            </Array>
          </mxGeometry>
        </mxCell>
        <mxCell id="33" value="Transcoding Format" style="curved=1;startArrow=none;endArrow=block;exitX=0.49;exitY=0.99;entryX=0.53;entryY=0;" edge="1" parent="1" source="6" target="14">
          <mxGeometry relative="1" as="geometry">
            <Array as="points">
              <mxPoint x="936" y="410" />
            </Array>
          </mxGeometry>
        </mxCell>
        <mxCell id="34" value="TLS" style="curved=1;startArrow=none;endArrow=block;exitX=0.49;exitY=0.99;entryX=1;entryY=0.22;" edge="1" parent="1" source="7" target="14">
          <mxGeometry relative="1" as="geometry">
            <Array as="points">
              <mxPoint x="1266" y="410" />
            </Array>
          </mxGeometry>
        </mxCell>
        <mxCell id="35" value="" style="curved=1;startArrow=none;endArrow=none;exitX=0.95;exitY=0.99;entryX=-Infinity;entryY=Infinity;" edge="1" parent="1" source="13" target="21">
          <mxGeometry relative="1" as="geometry">
            <Array as="points">
              <mxPoint x="1085" y="118" />
            </Array>
          </mxGeometry>
        </mxCell>
        <mxCell id="36" value="" style="curved=1;startArrow=none;endArrow=none;exitX=-Infinity;exitY=Infinity;entryX=Infinity;entryY=Infinity;" edge="1" parent="1" source="21" target="22">
          <mxGeometry relative="1" as="geometry">
            <Array as="points">
              <mxPoint x="1085" y="289" />
            </Array>
          </mxGeometry>
        </mxCell>
        <mxCell id="37" value="" style="curved=1;startArrow=none;endArrow=block;exitX=Infinity;exitY=Infinity;entryX=1;entryY=0.9;" edge="1" parent="1" source="22" target="13">
          <mxGeometry relative="1" as="geometry">
            <Array as="points">
              <mxPoint x="1164" y="289" />
              <mxPoint x="1164" y="118" />
            </Array>
          </mxGeometry>
        </mxCell>
        <mxCell id="38" value="" style="curved=1;startArrow=none;endArrow=block;exitX=0.19;exitY=0.99;entryX=1;entryY=0.37;" edge="1" parent="1" source="13" target="15">
          <mxGeometry relative="1" as="geometry">
            <Array as="points">
              <mxPoint x="721" y="118" />
              <mxPoint x="721" y="154" />
            </Array>
          </mxGeometry>
        </mxCell>
        <mxCell id="39" value="" style="curved=1;startArrow=none;endArrow=block;exitX=0.24;exitY=0.99;entryX=1;entryY=0.33;" edge="1" parent="1" source="13" target="16">
          <mxGeometry relative="1" as="geometry">
            <Array as="points">
              <mxPoint x="741" y="118" />
              <mxPoint x="741" y="154" />
            </Array>
          </mxGeometry>
        </mxCell>
        <mxCell id="40" value="" style="curved=1;startArrow=none;endArrow=block;exitX=0.28;exitY=0.99;entryX=1;entryY=0.18;" edge="1" parent="1" source="13" target="17">
          <mxGeometry relative="1" as="geometry">
            <Array as="points">
              <mxPoint x="761" y="118" />
              <mxPoint x="761" y="154" />
            </Array>
          </mxGeometry>
        </mxCell>
        <mxCell id="41" value="" style="curved=1;startArrow=none;endArrow=block;exitX=0.68;exitY=0;entryX=0.65;entryY=0.99;" edge="1" parent="1" source="18" target="10">
          <mxGeometry relative="1" as="geometry">
            <Array as="points">
              <mxPoint x="1602" y="823" />
            </Array>
          </mxGeometry>
        </mxCell>
        <mxCell id="42" value="" style="curved=1;startArrow=none;endArrow=block;exitX=1;exitY=0.03;entryX=0.99;entryY=0.99;" edge="1" parent="1" source="19" target="11">
          <mxGeometry relative="1" as="geometry">
            <Array as="points">
              <mxPoint x="1573" y="944" />
            </Array>
          </mxGeometry>
        </mxCell>
        <mxCell id="43" value="" style="curved=1;startArrow=none;endArrow=block;exitX=1;exitY=0.05;entryX=1;entryY=0.84;" edge="1" parent="1" source="20" target="12">
          <mxGeometry relative="1" as="geometry">
            <Array as="points">
              <mxPoint x="1481" y="1054" />
            </Array>
          </mxGeometry>
        </mxCell>
        <mxCell id="44" value="" style="curved=1;startArrow=none;endArrow=block;exitX=0.5;exitY=0.99;entryX=0.44;entryY=0;" edge="1" parent="1" source="10" target="18">
          <mxGeometry relative="1" as="geometry">
            <Array as="points">
              <mxPoint x="1539" y="823" />
            </Array>
          </mxGeometry>
        </mxCell>
        <mxCell id="45" value="" style="curved=1;startArrow=none;endArrow=block;exitX=0.5;exitY=0.99;entryX=0.25;entryY=0;" edge="1" parent="1" source="11" target="19">
          <mxGeometry relative="1" as="geometry">
            <Array as="points">
              <mxPoint x="1364" y="944" />
            </Array>
          </mxGeometry>
        </mxCell>
        <mxCell id="46" value="" style="curved=1;startArrow=none;endArrow=block;exitX=0.32;exitY=0.99;entryX=0.36;entryY=-0.01;" edge="1" parent="1" source="12" target="20">
          <mxGeometry relative="1" as="geometry">
            <Array as="points">
              <mxPoint x="1187" y="1054" />
            </Array>
          </mxGeometry>
        </mxCell>
      </root>
    </mxGraphModel>
  </diagram>
</mxfile>
